<mxfile host="app.diagrams.net" modified="2023-05-22T11:25:03.302Z" agent="Mozilla/5.0 (X11; Linux x86_64) AppleWebKit/537.36 (KHTML, like Gecko) Chrome/113.0.0.0 Safari/537.36" etag="D_Ptd_uLs8UqdKNXcAGL" version="21.3.2" type="device">
  <diagram name="Page-1" id="CqIfeNI2Gpg7G-kYxQ7U">
    <mxGraphModel dx="1437" dy="353" grid="1" gridSize="10" guides="1" tooltips="1" connect="1" arrows="1" fold="1" page="1" pageScale="1" pageWidth="850" pageHeight="1100" math="0" shadow="0">
      <root>
        <mxCell id="0" />
        <mxCell id="1" parent="0" />
        <mxCell id="QZ7Mk-t6btH13mGaOMAf-7" style="edgeStyle=orthogonalEdgeStyle;rounded=0;orthogonalLoop=1;jettySize=auto;html=1;exitX=0.5;exitY=1;exitDx=0;exitDy=0;entryX=0.5;entryY=0;entryDx=0;entryDy=0;" edge="1" parent="1" source="QZ7Mk-t6btH13mGaOMAf-2" target="QZ7Mk-t6btH13mGaOMAf-5">
          <mxGeometry relative="1" as="geometry" />
        </mxCell>
        <mxCell id="QZ7Mk-t6btH13mGaOMAf-2" value="Update round:" style="ellipse;whiteSpace=wrap;html=1;" vertex="1" parent="1">
          <mxGeometry x="80" y="140" width="120" height="50" as="geometry" />
        </mxCell>
        <mxCell id="QZ7Mk-t6btH13mGaOMAf-4" style="edgeStyle=orthogonalEdgeStyle;rounded=0;orthogonalLoop=1;jettySize=auto;html=1;exitX=0.5;exitY=1;exitDx=0;exitDy=0;entryX=0.5;entryY=0;entryDx=0;entryDy=0;" edge="1" parent="1" source="QZ7Mk-t6btH13mGaOMAf-3" target="QZ7Mk-t6btH13mGaOMAf-2">
          <mxGeometry relative="1" as="geometry" />
        </mxCell>
        <mxCell id="QZ7Mk-t6btH13mGaOMAf-3" value="Recieved internal&lt;br&gt;message" style="rounded=0;whiteSpace=wrap;html=1;" vertex="1" parent="1">
          <mxGeometry x="340" y="30" width="120" height="60" as="geometry" />
        </mxCell>
        <mxCell id="QZ7Mk-t6btH13mGaOMAf-8" value="yes" style="edgeStyle=orthogonalEdgeStyle;rounded=0;orthogonalLoop=1;jettySize=auto;html=1;exitX=1;exitY=0.5;exitDx=0;exitDy=0;entryX=0;entryY=0.5;entryDx=0;entryDy=0;" edge="1" parent="1" source="QZ7Mk-t6btH13mGaOMAf-5" target="QZ7Mk-t6btH13mGaOMAf-6">
          <mxGeometry relative="1" as="geometry" />
        </mxCell>
        <mxCell id="QZ7Mk-t6btH13mGaOMAf-10" value="No" style="edgeStyle=orthogonalEdgeStyle;rounded=0;orthogonalLoop=1;jettySize=auto;html=1;exitX=0.5;exitY=1;exitDx=0;exitDy=0;entryX=0.5;entryY=0;entryDx=0;entryDy=0;" edge="1" parent="1" source="QZ7Mk-t6btH13mGaOMAf-5" target="QZ7Mk-t6btH13mGaOMAf-9">
          <mxGeometry relative="1" as="geometry" />
        </mxCell>
        <mxCell id="QZ7Mk-t6btH13mGaOMAf-5" value="Same&lt;br&gt;validator&lt;br&gt;set?" style="rhombus;whiteSpace=wrap;html=1;" vertex="1" parent="1">
          <mxGeometry x="100" y="211" width="80" height="80" as="geometry" />
        </mxCell>
        <mxCell id="QZ7Mk-t6btH13mGaOMAf-53" style="edgeStyle=orthogonalEdgeStyle;rounded=0;orthogonalLoop=1;jettySize=auto;html=1;exitX=1;exitY=0.5;exitDx=0;exitDy=0;entryX=0;entryY=0.5;entryDx=0;entryDy=0;" edge="1" parent="1" source="QZ7Mk-t6btH13mGaOMAf-6" target="QZ7Mk-t6btH13mGaOMAf-52">
          <mxGeometry relative="1" as="geometry" />
        </mxCell>
        <mxCell id="QZ7Mk-t6btH13mGaOMAf-6" value="Continue&lt;br&gt;operation" style="ellipse;whiteSpace=wrap;html=1;" vertex="1" parent="1">
          <mxGeometry x="280" y="130" width="120" height="50" as="geometry" />
        </mxCell>
        <mxCell id="QZ7Mk-t6btH13mGaOMAf-13" value="yes" style="edgeStyle=orthogonalEdgeStyle;rounded=0;orthogonalLoop=1;jettySize=auto;html=1;exitX=1;exitY=0.5;exitDx=0;exitDy=0;entryX=0;entryY=1;entryDx=0;entryDy=0;" edge="1" parent="1" source="QZ7Mk-t6btH13mGaOMAf-9" target="QZ7Mk-t6btH13mGaOMAf-6">
          <mxGeometry relative="1" as="geometry">
            <Array as="points">
              <mxPoint x="200" y="350" />
              <mxPoint x="260" y="350" />
              <mxPoint x="260" y="198" />
              <mxPoint x="298" y="198" />
            </Array>
          </mxGeometry>
        </mxCell>
        <mxCell id="QZ7Mk-t6btH13mGaOMAf-15" style="edgeStyle=orthogonalEdgeStyle;rounded=0;orthogonalLoop=1;jettySize=auto;html=1;exitX=0.5;exitY=1;exitDx=0;exitDy=0;entryX=0.5;entryY=0;entryDx=0;entryDy=0;" edge="1" parent="1" source="QZ7Mk-t6btH13mGaOMAf-9" target="QZ7Mk-t6btH13mGaOMAf-14">
          <mxGeometry relative="1" as="geometry" />
        </mxCell>
        <mxCell id="QZ7Mk-t6btH13mGaOMAf-9" value="Prev round&lt;br&gt;has unclosed&lt;br&gt;creidts" style="rhombus;whiteSpace=wrap;html=1;" vertex="1" parent="1">
          <mxGeometry x="80" y="311" width="120" height="80" as="geometry" />
        </mxCell>
        <mxCell id="QZ7Mk-t6btH13mGaOMAf-18" style="edgeStyle=orthogonalEdgeStyle;rounded=0;orthogonalLoop=1;jettySize=auto;html=1;exitX=0.5;exitY=1;exitDx=0;exitDy=0;entryX=0.5;entryY=0;entryDx=0;entryDy=0;" edge="1" parent="1" source="QZ7Mk-t6btH13mGaOMAf-14" target="QZ7Mk-t6btH13mGaOMAf-17">
          <mxGeometry relative="1" as="geometry" />
        </mxCell>
        <mxCell id="QZ7Mk-t6btH13mGaOMAf-14" value="Finalize lending&lt;br&gt;round" style="ellipse;whiteSpace=wrap;html=1;" vertex="1" parent="1">
          <mxGeometry x="80" y="421" width="120" height="50" as="geometry" />
        </mxCell>
        <mxCell id="QZ7Mk-t6btH13mGaOMAf-16" style="edgeStyle=orthogonalEdgeStyle;rounded=0;orthogonalLoop=1;jettySize=auto;html=1;exitX=0.5;exitY=1;exitDx=0;exitDy=0;" edge="1" parent="1" source="QZ7Mk-t6btH13mGaOMAf-14" target="QZ7Mk-t6btH13mGaOMAf-14">
          <mxGeometry relative="1" as="geometry" />
        </mxCell>
        <mxCell id="QZ7Mk-t6btH13mGaOMAf-22" style="edgeStyle=orthogonalEdgeStyle;rounded=0;orthogonalLoop=1;jettySize=auto;html=1;exitX=0;exitY=0.5;exitDx=0;exitDy=0;entryX=0.5;entryY=0;entryDx=0;entryDy=0;" edge="1" parent="1" source="QZ7Mk-t6btH13mGaOMAf-17" target="QZ7Mk-t6btH13mGaOMAf-21">
          <mxGeometry relative="1" as="geometry" />
        </mxCell>
        <mxCell id="QZ7Mk-t6btH13mGaOMAf-26" style="edgeStyle=orthogonalEdgeStyle;rounded=0;orthogonalLoop=1;jettySize=auto;html=1;exitX=0;exitY=1;exitDx=0;exitDy=0;" edge="1" parent="1" source="QZ7Mk-t6btH13mGaOMAf-17" target="QZ7Mk-t6btH13mGaOMAf-24">
          <mxGeometry relative="1" as="geometry" />
        </mxCell>
        <mxCell id="QZ7Mk-t6btH13mGaOMAf-30" style="edgeStyle=orthogonalEdgeStyle;rounded=0;orthogonalLoop=1;jettySize=auto;html=1;exitX=0.5;exitY=1;exitDx=0;exitDy=0;entryX=0.5;entryY=0;entryDx=0;entryDy=0;" edge="1" parent="1" source="QZ7Mk-t6btH13mGaOMAf-17" target="QZ7Mk-t6btH13mGaOMAf-28">
          <mxGeometry relative="1" as="geometry" />
        </mxCell>
        <mxCell id="QZ7Mk-t6btH13mGaOMAf-37" style="edgeStyle=orthogonalEdgeStyle;rounded=0;orthogonalLoop=1;jettySize=auto;html=1;exitX=1;exitY=0.5;exitDx=0;exitDy=0;entryX=0.5;entryY=0;entryDx=0;entryDy=0;" edge="1" parent="1" source="QZ7Mk-t6btH13mGaOMAf-17" target="QZ7Mk-t6btH13mGaOMAf-29">
          <mxGeometry relative="1" as="geometry" />
        </mxCell>
        <mxCell id="QZ7Mk-t6btH13mGaOMAf-17" value="Calc profit&lt;br&gt;update pTON/TON" style="ellipse;whiteSpace=wrap;html=1;" vertex="1" parent="1">
          <mxGeometry x="80" y="490" width="120" height="50" as="geometry" />
        </mxCell>
        <mxCell id="QZ7Mk-t6btH13mGaOMAf-21" value="Notify&lt;br&gt;Interest Manager" style="text;html=1;strokeColor=none;fillColor=none;align=center;verticalAlign=middle;whiteSpace=wrap;rounded=0;" vertex="1" parent="1">
          <mxGeometry x="-40" y="535" width="130" height="30" as="geometry" />
        </mxCell>
        <mxCell id="QZ7Mk-t6btH13mGaOMAf-24" value="Send&lt;br&gt;Governance Fee" style="text;html=1;strokeColor=none;fillColor=none;align=center;verticalAlign=middle;whiteSpace=wrap;rounded=0;" vertex="1" parent="1">
          <mxGeometry x="20" y="570" width="120" height="30" as="geometry" />
        </mxCell>
        <mxCell id="QZ7Mk-t6btH13mGaOMAf-33" style="edgeStyle=orthogonalEdgeStyle;rounded=0;orthogonalLoop=1;jettySize=auto;html=1;exitX=0.5;exitY=1;exitDx=0;exitDy=0;entryX=0.5;entryY=-0.333;entryDx=0;entryDy=0;entryPerimeter=0;" edge="1" parent="1" source="QZ7Mk-t6btH13mGaOMAf-28" target="QZ7Mk-t6btH13mGaOMAf-31">
          <mxGeometry relative="1" as="geometry" />
        </mxCell>
        <mxCell id="QZ7Mk-t6btH13mGaOMAf-28" value="Start pTON distribution" style="text;html=1;strokeColor=none;fillColor=none;align=center;verticalAlign=middle;whiteSpace=wrap;rounded=0;" vertex="1" parent="1">
          <mxGeometry x="140" y="570" width="100" height="30" as="geometry" />
        </mxCell>
        <mxCell id="QZ7Mk-t6btH13mGaOMAf-44" style="edgeStyle=orthogonalEdgeStyle;rounded=0;orthogonalLoop=1;jettySize=auto;html=1;exitX=0.5;exitY=1;exitDx=0;exitDy=0;entryX=0.5;entryY=0;entryDx=0;entryDy=0;" edge="1" parent="1" source="QZ7Mk-t6btH13mGaOMAf-29" target="QZ7Mk-t6btH13mGaOMAf-43">
          <mxGeometry relative="1" as="geometry" />
        </mxCell>
        <mxCell id="QZ7Mk-t6btH13mGaOMAf-29" value="Start TON distribution" style="text;html=1;strokeColor=none;fillColor=none;align=center;verticalAlign=middle;whiteSpace=wrap;rounded=0;" vertex="1" parent="1">
          <mxGeometry x="210" y="535" width="100" height="30" as="geometry" />
        </mxCell>
        <mxCell id="QZ7Mk-t6btH13mGaOMAf-31" value="Mint pTON to&lt;br&gt;awaitedPTON minter" style="text;html=1;strokeColor=none;fillColor=none;align=center;verticalAlign=middle;whiteSpace=wrap;rounded=0;" vertex="1" parent="1">
          <mxGeometry x="50" y="650" width="60" height="30" as="geometry" />
        </mxCell>
        <mxCell id="QZ7Mk-t6btH13mGaOMAf-34" value="Send TON to&lt;br&gt;awaitedTON minter" style="text;html=1;strokeColor=none;fillColor=none;align=center;verticalAlign=middle;whiteSpace=wrap;rounded=0;" vertex="1" parent="1">
          <mxGeometry x="257" y="660" width="90" height="30" as="geometry" />
        </mxCell>
        <mxCell id="QZ7Mk-t6btH13mGaOMAf-40" style="edgeStyle=orthogonalEdgeStyle;rounded=0;orthogonalLoop=1;jettySize=auto;html=1;exitX=0;exitY=0.5;exitDx=0;exitDy=0;exitPerimeter=0;entryX=0.5;entryY=1;entryDx=0;entryDy=0;" edge="1" parent="1" source="QZ7Mk-t6btH13mGaOMAf-39" target="QZ7Mk-t6btH13mGaOMAf-6">
          <mxGeometry relative="1" as="geometry" />
        </mxCell>
        <mxCell id="QZ7Mk-t6btH13mGaOMAf-39" value="" style="strokeWidth=2;html=1;shape=mxgraph.flowchart.annotation_2;align=left;labelPosition=right;pointerEvents=1;rotation=-90;" vertex="1" parent="1">
          <mxGeometry x="130" y="595" width="50" height="320" as="geometry" />
        </mxCell>
        <mxCell id="QZ7Mk-t6btH13mGaOMAf-47" style="edgeStyle=orthogonalEdgeStyle;rounded=0;orthogonalLoop=1;jettySize=auto;html=1;exitX=1;exitY=0.5;exitDx=0;exitDy=0;entryX=0.5;entryY=0;entryDx=0;entryDy=0;" edge="1" parent="1" source="QZ7Mk-t6btH13mGaOMAf-43" target="QZ7Mk-t6btH13mGaOMAf-34">
          <mxGeometry relative="1" as="geometry">
            <Array as="points">
              <mxPoint x="302" y="615" />
            </Array>
          </mxGeometry>
        </mxCell>
        <mxCell id="QZ7Mk-t6btH13mGaOMAf-50" style="edgeStyle=orthogonalEdgeStyle;rounded=0;orthogonalLoop=1;jettySize=auto;html=1;exitX=0;exitY=0.5;exitDx=0;exitDy=0;" edge="1" parent="1" source="QZ7Mk-t6btH13mGaOMAf-43" target="QZ7Mk-t6btH13mGaOMAf-49">
          <mxGeometry relative="1" as="geometry" />
        </mxCell>
        <mxCell id="QZ7Mk-t6btH13mGaOMAf-43" value="Enough TON?" style="rhombus;whiteSpace=wrap;html=1;" vertex="1" parent="1">
          <mxGeometry x="230" y="580" width="60" height="70" as="geometry" />
        </mxCell>
        <mxCell id="QZ7Mk-t6btH13mGaOMAf-49" value="Halt" style="text;html=1;strokeColor=none;fillColor=none;align=center;verticalAlign=middle;whiteSpace=wrap;rounded=0;" vertex="1" parent="1">
          <mxGeometry x="170" y="670" width="60" height="30" as="geometry" />
        </mxCell>
        <mxCell id="QZ7Mk-t6btH13mGaOMAf-60" style="edgeStyle=orthogonalEdgeStyle;rounded=0;orthogonalLoop=1;jettySize=auto;html=1;exitX=0.25;exitY=1;exitDx=0;exitDy=0;entryX=0.5;entryY=0;entryDx=0;entryDy=0;" edge="1" parent="1" source="QZ7Mk-t6btH13mGaOMAf-52" target="QZ7Mk-t6btH13mGaOMAf-56">
          <mxGeometry relative="1" as="geometry">
            <Array as="points">
              <mxPoint x="529" y="191" />
              <mxPoint x="460" y="191" />
            </Array>
          </mxGeometry>
        </mxCell>
        <mxCell id="QZ7Mk-t6btH13mGaOMAf-73" style="edgeStyle=orthogonalEdgeStyle;rounded=0;orthogonalLoop=1;jettySize=auto;html=1;exitX=0.5;exitY=1;exitDx=0;exitDy=0;entryX=0.5;entryY=0;entryDx=0;entryDy=0;" edge="1" parent="1" source="QZ7Mk-t6btH13mGaOMAf-52" target="QZ7Mk-t6btH13mGaOMAf-57">
          <mxGeometry relative="1" as="geometry" />
        </mxCell>
        <mxCell id="QZ7Mk-t6btH13mGaOMAf-79" style="edgeStyle=orthogonalEdgeStyle;rounded=0;orthogonalLoop=1;jettySize=auto;html=1;exitX=1;exitY=0.75;exitDx=0;exitDy=0;" edge="1" parent="1" source="QZ7Mk-t6btH13mGaOMAf-52" target="QZ7Mk-t6btH13mGaOMAf-58">
          <mxGeometry relative="1" as="geometry" />
        </mxCell>
        <mxCell id="QZ7Mk-t6btH13mGaOMAf-85" style="edgeStyle=orthogonalEdgeStyle;rounded=0;orthogonalLoop=1;jettySize=auto;html=1;exitX=1;exitY=0.25;exitDx=0;exitDy=0;entryX=0.5;entryY=0;entryDx=0;entryDy=0;" edge="1" parent="1" source="QZ7Mk-t6btH13mGaOMAf-52" target="QZ7Mk-t6btH13mGaOMAf-59">
          <mxGeometry relative="1" as="geometry" />
        </mxCell>
        <mxCell id="QZ7Mk-t6btH13mGaOMAf-52" value="Operation&lt;br&gt;selector" style="shape=parallelogram;perimeter=parallelogramPerimeter;whiteSpace=wrap;html=1;fixedSize=1;" vertex="1" parent="1">
          <mxGeometry x="499" y="124" width="120" height="60" as="geometry" />
        </mxCell>
        <mxCell id="QZ7Mk-t6btH13mGaOMAf-63" style="edgeStyle=orthogonalEdgeStyle;rounded=0;orthogonalLoop=1;jettySize=auto;html=1;exitX=0.5;exitY=1;exitDx=0;exitDy=0;entryX=0.5;entryY=0;entryDx=0;entryDy=0;" edge="1" parent="1" source="QZ7Mk-t6btH13mGaOMAf-56" target="QZ7Mk-t6btH13mGaOMAf-62">
          <mxGeometry relative="1" as="geometry" />
        </mxCell>
        <mxCell id="QZ7Mk-t6btH13mGaOMAf-56" value="Request loan" style="ellipse;whiteSpace=wrap;html=1;" vertex="1" parent="1">
          <mxGeometry x="400" y="211" width="120" height="39" as="geometry" />
        </mxCell>
        <mxCell id="QZ7Mk-t6btH13mGaOMAf-75" style="edgeStyle=orthogonalEdgeStyle;rounded=0;orthogonalLoop=1;jettySize=auto;html=1;exitX=0.5;exitY=1;exitDx=0;exitDy=0;entryX=0.5;entryY=0;entryDx=0;entryDy=0;" edge="1" parent="1" source="QZ7Mk-t6btH13mGaOMAf-57" target="QZ7Mk-t6btH13mGaOMAf-74">
          <mxGeometry relative="1" as="geometry" />
        </mxCell>
        <mxCell id="QZ7Mk-t6btH13mGaOMAf-57" value="Loan repayment" style="ellipse;whiteSpace=wrap;html=1;" vertex="1" parent="1">
          <mxGeometry x="550" y="211" width="120" height="39" as="geometry" />
        </mxCell>
        <mxCell id="QZ7Mk-t6btH13mGaOMAf-83" style="edgeStyle=orthogonalEdgeStyle;rounded=0;orthogonalLoop=1;jettySize=auto;html=1;exitX=0.5;exitY=1;exitDx=0;exitDy=0;entryX=0.5;entryY=0;entryDx=0;entryDy=0;" edge="1" parent="1" source="QZ7Mk-t6btH13mGaOMAf-58" target="QZ7Mk-t6btH13mGaOMAf-82">
          <mxGeometry relative="1" as="geometry" />
        </mxCell>
        <mxCell id="QZ7Mk-t6btH13mGaOMAf-58" value="Deposit" style="ellipse;whiteSpace=wrap;html=1;" vertex="1" parent="1">
          <mxGeometry x="740" y="211" width="120" height="39" as="geometry" />
        </mxCell>
        <mxCell id="QZ7Mk-t6btH13mGaOMAf-86" style="edgeStyle=orthogonalEdgeStyle;rounded=0;orthogonalLoop=1;jettySize=auto;html=1;exitX=0.5;exitY=1;exitDx=0;exitDy=0;entryX=0.5;entryY=0;entryDx=0;entryDy=0;" edge="1" parent="1" source="QZ7Mk-t6btH13mGaOMAf-59" target="QZ7Mk-t6btH13mGaOMAf-84">
          <mxGeometry relative="1" as="geometry" />
        </mxCell>
        <mxCell id="QZ7Mk-t6btH13mGaOMAf-59" value="Burn notification&lt;br&gt;from pTON" style="ellipse;whiteSpace=wrap;html=1;" vertex="1" parent="1">
          <mxGeometry x="880" y="211" width="120" height="39" as="geometry" />
        </mxCell>
        <mxCell id="QZ7Mk-t6btH13mGaOMAf-66" style="edgeStyle=orthogonalEdgeStyle;rounded=0;orthogonalLoop=1;jettySize=auto;html=1;exitX=0.5;exitY=1;exitDx=0;exitDy=0;entryX=0.5;entryY=0;entryDx=0;entryDy=0;" edge="1" parent="1" source="QZ7Mk-t6btH13mGaOMAf-62" target="QZ7Mk-t6btH13mGaOMAf-65">
          <mxGeometry relative="1" as="geometry" />
        </mxCell>
        <mxCell id="QZ7Mk-t6btH13mGaOMAf-62" value="Authorize&lt;br&gt;controller&lt;br&gt;by&lt;br&gt;address" style="rhombus;whiteSpace=wrap;html=1;" vertex="1" parent="1">
          <mxGeometry x="390.5" y="270" width="139" height="80" as="geometry" />
        </mxCell>
        <mxCell id="QZ7Mk-t6btH13mGaOMAf-72" style="edgeStyle=orthogonalEdgeStyle;rounded=0;orthogonalLoop=1;jettySize=auto;html=1;exitX=0.5;exitY=1;exitDx=0;exitDy=0;entryX=0.5;entryY=0;entryDx=0;entryDy=0;" edge="1" parent="1" source="QZ7Mk-t6btH13mGaOMAf-65" target="QZ7Mk-t6btH13mGaOMAf-71">
          <mxGeometry relative="1" as="geometry" />
        </mxCell>
        <mxCell id="QZ7Mk-t6btH13mGaOMAf-65" value="Add loan to current&lt;br&gt;round list" style="ellipse;whiteSpace=wrap;html=1;" vertex="1" parent="1">
          <mxGeometry x="400" y="370" width="120" height="50" as="geometry" />
        </mxCell>
        <mxCell id="QZ7Mk-t6btH13mGaOMAf-71" value="Send loan" style="text;html=1;strokeColor=none;fillColor=none;align=center;verticalAlign=middle;whiteSpace=wrap;rounded=0;" vertex="1" parent="1">
          <mxGeometry x="430" y="450" width="60" height="30" as="geometry" />
        </mxCell>
        <mxCell id="QZ7Mk-t6btH13mGaOMAf-78" style="edgeStyle=orthogonalEdgeStyle;rounded=0;orthogonalLoop=1;jettySize=auto;html=1;exitX=0.5;exitY=1;exitDx=0;exitDy=0;entryX=0.5;entryY=0;entryDx=0;entryDy=0;" edge="1" parent="1" source="QZ7Mk-t6btH13mGaOMAf-74" target="QZ7Mk-t6btH13mGaOMAf-77">
          <mxGeometry relative="1" as="geometry" />
        </mxCell>
        <mxCell id="QZ7Mk-t6btH13mGaOMAf-74" value="Find controller&lt;br&gt;in loan list" style="rhombus;whiteSpace=wrap;html=1;" vertex="1" parent="1">
          <mxGeometry x="550" y="270" width="120" height="80" as="geometry" />
        </mxCell>
        <mxCell id="QZ7Mk-t6btH13mGaOMAf-77" value="Close loan" style="ellipse;whiteSpace=wrap;html=1;" vertex="1" parent="1">
          <mxGeometry x="550" y="370" width="120" height="50" as="geometry" />
        </mxCell>
        <mxCell id="QZ7Mk-t6btH13mGaOMAf-82" value="Request to mint&lt;br&gt;awaitedPTON" style="text;html=1;strokeColor=none;fillColor=none;align=center;verticalAlign=middle;whiteSpace=wrap;rounded=0;" vertex="1" parent="1">
          <mxGeometry x="770" y="281" width="60" height="30" as="geometry" />
        </mxCell>
        <mxCell id="QZ7Mk-t6btH13mGaOMAf-84" value="Request to mint&lt;br&gt;awaitedTON" style="text;html=1;strokeColor=none;fillColor=none;align=center;verticalAlign=middle;whiteSpace=wrap;rounded=0;" vertex="1" parent="1">
          <mxGeometry x="910" y="281" width="60" height="30" as="geometry" />
        </mxCell>
      </root>
    </mxGraphModel>
  </diagram>
</mxfile>
